<?xml version="1.0" encoding="UTF-8"?>
<svg width="343px" height="76px" viewBox="0 0 343 76" version="1.1" xmlns="http://www.w3.org/2000/svg" xmlns:xlink="http://www.w3.org/1999/xlink">
    <!-- Generator: Sketch 60.1 (88133) - https://sketch.com -->
    <title>会员购h5</title>
    <desc>Created with Sketch.</desc>
    <g id="商品卡" stroke="none" stroke-width="1" fill="none" fill-rule="evenodd">
        <g id="mobile02" transform="translate(-16.000000, -267.000000)">
            <g id="编组" transform="translate(12.000000, 80.000000)">
                <g id="会员购h5" transform="translate(4.000000, 187.000000)">
                    <path d="M4,0.25 C1.92893219,0.25 0.25,1.92893219 0.25,4 L0.25,72 C0.25,74.0710678 1.92893219,75.75 4,75.75 L339,75.75 C341.071068,75.75 342.75,74.0710678 342.75,72 L342.75,4 C342.75,1.92893219 341.071068,0.25 339,0.25 L4,0.25 Z" id="bg" stroke="#E7E7E7" stroke-width="0.5" fill-opacity="0.3" fill="#F4F4F5"></path>
                    <polygon id="Rectangle-3-Copy-3" fill="#F0F1F4" points="91 32 321 32 321 48 91 48"></polygon>
                    <rect id="Rectangle-3-Copy-2" fill="#F0F1F4" x="91" y="52" width="36" height="16"></rect>
                    <g id="info-copy-3" transform="translate(91.000000, 7.000000)" fill="#999999">
                        <text id="卡片加载失败" font-family="PingFangSC-Regular, PingFang SC" font-size="12" font-weight="normal">
                            <tspan x="19" y="13">卡片加载失败</tspan>
                        </text>
                        <g id="icon_info" transform="translate(0.000000, 3.000000)">
                            <path d="M6.5,0 C10.0898509,0 13,2.91014913 13,6.5 C13,10.0898509 10.0898509,13 6.5,13 C2.91014913,13 0,10.0898509 0,6.5 C0,2.91014913 2.91014913,0 6.5,0 Z M6.5,9 C6.22385763,9 6,9.22385763 6,9.5 C6,9.77614237 6.22385763,10 6.5,10 C6.77614237,10 7,9.77614237 7,9.5 C7,9.22385763 6.77614237,9 6.5,9 Z M6.5,3 C6.22385763,3 6,3.22385763 6,3.5 L6,3.5 L6,7.5 C6,7.77614237 6.22385763,8 6.5,8 C6.77614237,8 7,7.77614237 7,7.5 L7,7.5 L7,3.5 C7,3.22385763 6.77614237,3 6.5,3 Z"></path>
                        </g>
                    </g>
                    <g id="PGC_cover_78*104">
                        <path d="M4,0 L78,0 L78,0 L78,76 L4,76 C1.790861,76 2.705415e-16,74.209139 0,72 L0,4 C-2.705415e-16,1.790861 1.790861,4.05812251e-16 4,0 Z" id="pic" fill="#F0F1F4"></path>
                        <g id="icon_小电视" transform="translate(22.000000, 22.000000)" fill="#CCCCCC">
                            <path d="M20.8286674,21.4185496 C20.5126326,21.7218187 20.2207394,22.551935 19.69182,22.5652168 C19.1650954,22.5740714 18.5615568,22.2486658 18.1774867,21.7992962 C17.7956114,21.3521402 17.6068684,21.055512 17.42032,21.0355892 C17.2337717,21.0156664 16.994551,21.4451133 16.6631534,21.7992962 C16.3317558,22.1556928 15.5416688,22.5652168 15.14882,22.5652168 C14.7537766,22.5652168 14.3258128,21.881201 14.0119727,21.4185496 C13.6981326,20.9536844 13.3272307,20.7323201 12.8751254,21.0355892 C12.42302,21.3388584 12.4274094,22.0914971 12.8751254,22.5652168 C13.325036,23.0345092 13.814451,23.5038016 14.0119727,23.7096705 C14.2094944,23.9133257 14.7011041,24.0926308 15.14882,24.0926308 C15.596536,24.0926308 15.8686771,24.0328624 16.2856674,23.7096705 C16.700463,23.3886922 17.42032,22.9437499 17.42032,22.9437499 C17.42032,22.9437499 18.4145128,24.0926308 19.3143341,24.0926308 C20.2119606,24.0926308 21.0876403,23.4617424 21.5880287,22.9437499 C22.0840278,22.4301846 22.2288771,21.7683052 21.9655147,21.4185496 C21.6999577,21.0687939 21.1447022,21.1152804 20.8286674,21.4185496 L20.8286674,21.4185496 Z M31.4333901,23.7096705 C31.4333901,25.8192727 29.7390925,27.530419 27.6453621,27.530419 L7.19527802,27.530419 C5.10374227,27.530419 3.40944469,25.8192727 3.40944469,23.7096705 L3.40944469,12.2496385 C3.40944469,10.1400364 5.10374227,8.43110366 7.19527802,8.43110366 L27.6453621,8.43110366 C29.7390925,8.43110366 31.4333901,10.1400364 31.4333901,12.2496385 L31.4333901,23.7096705 Z M28.7822094,4.99331544 L22.8016901,4.99331544 L25.8040205,1.96505126 C26.2451524,1.52010893 26.2451524,0.800674822 25.8040205,0.355732496 C25.3628886,-0.086996186 24.6496157,-0.086996186 24.2106785,0.355732496 L19.6128114,4.99331544 L15.6184829,4.99331544 L11.0008635,0.335809705 C10.557537,-0.113559907 9.83767995,-0.113559907 9.39435338,0.335809705 C8.95102681,0.782965674 8.95102681,1.50904071 9.39435338,1.95619668 L12.4054626,4.99331544 L6.06062536,4.99331544 C2.71372923,4.99331544 -0.001097343,7.7293787 -0.001097343,11.1051849 L-0.001097343,24.8563378 C-0.001097343,28.2299303 2.71372923,30.9659936 6.06062536,30.9659936 L6.81559734,30.9659936 C6.81559734,32.0219015 7.66494082,32.8785815 8.71180604,32.8785815 C9.75647657,32.8785815 10.6036254,32.0219015 10.6036254,30.9659936 L24.2370147,30.9659936 C24.2370147,32.0219015 25.0841635,32.8785815 26.1310287,32.8785815 C27.177894,32.8785815 28.0228481,32.0219015 28.0228481,30.9659936 L28.7822094,30.9659936 C32.1269109,30.9659936 34.8417374,28.2299303 34.8417374,24.8563378 L34.8417374,11.1051849 C34.8417374,7.7293787 32.1269109,4.99331544 28.7822094,4.99331544 L28.7822094,4.99331544 Z M20.8286674,16.0703871 L28.0228481,17.597801 L28.4025287,14.5429731 L21.5880287,13.0155592 L20.8286674,16.0703871 Z M13.254806,13.0155592 L6.43811135,14.5429731 L6.81559734,17.597801 L14.0119727,16.0703871 L13.254806,13.0155592 Z"></path>
                        </g>
                    </g>
                </g>
            </g>
        </g>
    </g>
</svg>